<svg id="Calque_1" data-name="Calque 1" xmlns="http://www.w3.org/2000/svg" viewBox="0 0 3990 3702"><defs><style>.cls-1{fill-rule:evenodd;}</style></defs><title>Logo Text Anim 4</title><path class="cls-1" d="M3989.85,685.77,3739.87,0,1005,996.94l250,685.78,357.92-130.48-119.52-327.85L2324,921.63l736,2019-327.85,119.51,130.47,357.92,1013.63-369.5-130.47-357.92-327.86,119.51-736-2019,830.55-302.77,119.51,327.86ZM1362.74,2810.43c166.76-408.37,469.93-741.15,930.76-791.15,70.37-7.63,165,15.81,192.72,129.14,33.7,137.87-86.4,223.45-176.93,244-492.52,111.79-724,610.64-744.68,1100.64-6.85,162.28-129.27,208.71-206.27,208.71a141.18,141.18,0,0,1-17.2-1.05q-7.1.71-14.23.71c-77,0-191.84-60.92-191.84-214.12,0-635.67-221.22-1522.53-951-1522.53C-81,1964.78-45,1600,197.57,1600,893.23,1600,1260.69,2148.4,1362.74,2810.43Z"/></svg>